#!OML:ASF X:\für Bonn\!DataBase\2005_08_12_Daniel\c3d\Daniel.ASF
:FULLY-SPECIFIED
:DEGREES
35
root 3.94139 20.4432 -2.02941 529.084 95.4676 -1988.59
lowerback 9.21345 -1.23556 2.39844
upperback -3.33737 -1.42742 -1.01945
thorax -8.81767 -0.857403 -2.19638
lowerneck -3.95555 2.57626 -7.0626
upperneck 7.61525 3.91283 1.15014
head 2.98621 1.80793 1.75464
rclavicle -2.5345e-015 4.37326e-015
rhumerus -16.7342 47.3307 -99.6795
rradius 98.8646
rwrist 1.38249
rhand -31.7625 30.6107
rfingers 7.12502
rthumb -5.0194 0.690134
lclavicle -2.5345e-015 4.37326e-015
lhumerus -10.5093 -31.5973 84.4899
lradius 106.695
lwrist 15.8313
lhand -16.4639 -17.9404
lfingers 7.12502
lthumb 9.75261 11.8138
rfemur -2.54468 4.55249 23.3208
rtibia 41.7142
rfoot 22.8593 -4.34306
rtoes -13.2609
lfemur -7.28119 1.65924 -20.065
ltibia 54.7127
lfoot 19.602 -5.45949
ltoes -6.32942
36
root 4.17803 20.5545 -2.03961 528.391 95.3418 -1988.97
lowerback 9.70618 -1.29254 2.43478
upperback -3.2081 -1.48662 -0.97455
thorax -8.96839 -0.887425 -2.15222
lowerneck -4.04313 2.63284 -6.74577
upperneck 7.73617 3.99696 0.898778
head 3.04857 1.84722 1.62284
rclavicle -3.44643e-014 4.37326e-015
rhumerus -16.4261 47.8396 -99.0301
rradius 99.8161
rwrist 1.40659
rhand -31.7816 30.6666
rfingers 7.12502
rthumb -5.03789 0.746535
lclavicle -3.44643e-014 4.37326e-015
lhumerus -10.4258 -32.2259 84.277
lradius 107.357
lwrist 16.51
lhand -16.8483 -18.0336
lfingers 7.12502
lthumb 9.38172 11.7377
rfemur -2.39883 4.14608 23.4806
rtibia 41.5344
rfoot 22.1614 -4.23003
rtoes -14.0652
lfemur -7.16934 2.12832 -20.008
ltibia 54.5643
lfoot 18.992 -4.17453
ltoes -6.27409
37
root 4.41361 20.6526 -2.05021 527.144 95.2394 -1990.02
lowerback 10.0894 -1.35697 2.50902
upperback -3.08368 -1.5491 -0.894032
thorax -9.06033 -0.919171 -2.09176
lowerneck -4.18489 2.68132 -6.4478
upperneck 7.86859 4.07385 0.665561
head 3.12584 1.88235 1.50231
rclavicle -2.58669e-014 -5.76476e-015
rhumerus -16.1417 48.38 -98.3551
rradius 100.814
rwrist 1.24111
rhand -31.7025 30.6059
rfingers 7.12502
rthumb -4.96145 0.683972
lclavicle -2.58669e-014 -5.76476e-015
lhumerus -10.5753 -32.7863 84.2048
lradius 108.017
lwrist 17.0944
lhand -17.3078 -18.2385
lfingers 7.12502
lthumb 8.93834 11.5522
rfemur -2.39338 3.77752 23.6966
rtibia 41.2317
rfoot 21.5722 -4.3187
rtoes -14.1571
lfemur -7.18004 2.58523 -19.8854
ltibia 54.2657
lfoot 18.2181 -3.51456
ltoes -7.41279
38
root 4.64539 20.7343 -2.06068 525.817 95.1079 -1991.2
lowerback 10.4358 -1.42634 2.60189
upperback -2.94271 -1.6168 -0.828887
thorax -9.11388 -0.95419 -2.0574
lowerneck -4.46861 2.70507 -6.20751
upperneck 8.08 4.12927 0.480502
head 3.25762 1.90436 1.41269
rclavicle 6.16232e-015 -1.07344e-014
rhumerus -15.8356 48.8636 -97.7004
rradius 101.752
rwrist 0.863545
rhand -31.5004 30.4625
rfingers 7.12502
rthumb -4.76638 0.536126
lclavicle 6.16232e-015 -1.07344e-014
lhumerus -10.7807 -33.2908 84.2097
lradius 108.549
lwrist 17.5597
lhand -17.6314 -18.527
lfingers 7.12502
lthumb 8.62607 11.2768
rfemur -2.45274 3.38435 23.9035
rtibia 40.8212
rfoot 20.9771 -4.36165
rtoes -14.0085
lfemur -7.26265 2.9775 -19.7475
ltibia 53.8715
lfoot 17.2961 -3.29091
ltoes -8.79539
39
root 4.87698 20.8023 -2.07135 524.73 94.9812 -1992.2
lowerback 10.7331 -1.4864 2.67821
upperback -2.81299 -1.67614 -0.783349
thorax -9.15045 -0.9846 -2.03649
lowerneck -4.71797 2.7179 -5.97095
upperneck 8.2567 4.16162 0.34211
head 3.37177 1.91715 1.33671
rclavicle -4.01297e-015 5.96354e-015
rhumerus -15.631 49.2507 -97.1229
rradius 102.643
rwrist 0.443154
rhand -31.2575 30.2365
rfingers 7.12502
rthumb -4.53176 0.304963
lclavicle -4.01297e-015 5.96354e-015
lhumerus -11.1739 -33.7909 84.3296
lradius 109.054
lwrist 17.856
lhand -17.9335 -18.832
lfingers 7.12502
lthumb 8.33452 10.9836
rfemur -2.59031 3.01883 24.0812
rtibia 40.3329
rfoot 20.4243 -4.32873
rtoes -13.8131
lfemur -7.4287 3.35974 -19.6333
ltibia 53.4109
lfoot 16.3251 -3.23744
ltoes -10.3251
40
root 5.10651 20.8584 -2.08115 523.813 94.8304 -1993.09
lowerback 10.993 -1.55562 2.71806
upperback -2.70126 -1.75194 -0.724503
thorax -9.18387 -1.0205 -1.97776
lowerneck -4.97823 2.72733 -5.81325
upperneck 8.44627 4.1973 0.197858
head 3.49221 1.92869 1.27325
rclavicle 5.51627e-015 -5.56597e-015
rhumerus -15.5879 49.5911 -96.7327
rradius 103.38
rwrist 0.0307601
rhand -30.9668 29.9667
rfingers 7.12502
rthumb -4.25112 0.0293745
lclavicle 5.51627e-015 -5.56597e-015
lhumerus -11.6829 -34.2311 84.633
lradius 109.446
lwrist 17.9784
lhand -18.1479 -19.1118
lfingers 7.12502
lthumb 8.12756 10.7119
rfemur -2.81522 2.68712 24.2409
rtibia 39.8097
rfoot 19.7224 -4.06287
rtoes -13.8206
lfemur -7.68331 3.76807 -19.4928
ltibia 52.9017
lfoot 15.4584 -3.2698
ltoes -11.6023
41
root 5.33465 20.9014 -2.09203 523.14 94.6863 -1993.75
lowerback 11.2263 -1.61562 2.74628
upperback -2.54568 -1.81866 -0.677539
thorax -9.1531 -1.05043 -1.92756
lowerneck -5.30948 2.72404 -5.69626
upperneck 8.64066 4.21673 0.121284
head 3.62759 1.93271 1.24049
rclavicle -1.39646e-014 -4.17448e-015
rhumerus -15.5691 49.8477 -96.4325
rradius 103.985
rwrist -0.256378
rhand -30.75 29.6034
rfingers 7.12502
rthumb -4.04168 -0.337973
lclavicle -1.39646e-014 -4.17448e-015
lhumerus -12.2215 -34.6725 84.9666
lradius 109.828
lwrist 17.9771
lhand -18.2968 -19.2603
lfingers 7.12502
lthumb 7.98388 10.5689
rfemur -3.09774 2.35124 24.3529
rtibia 39.2949
rfoot 19.0076 -3.82431
rtoes -13.6311
lfemur -7.96522 4.22986 -19.3553
ltibia 52.3655
lfoot 14.6008 -3.43164
ltoes -12.6453
42
root 5.56178 20.9342 -2.10387 523.185 94.5316 -1993.69
lowerback 11.4785 -1.66498 2.71729
upperback -2.39274 -1.87943 -0.640136
thorax -9.13383 -1.07468 -1.85579
lowerneck -5.56832 2.71596 -5.55593
upperneck 8.80353 4.22883 -0.025944
head 3.74066 1.93198 1.17727
rclavicle 7.19352e-015 8.54774e-015
rhumerus -15.6672 50.0269 -96.2768
rradius 104.426
rwrist -0.397976
rhand -30.6299 29.1442
rfingers 7.12502
rthumb -3.92579 -0.799339
lclavicle 7.19352e-015 8.54774e-015
lhumerus -12.906 -35.111 85.456
lradius 110.166
lwrist 17.7159
lhand -18.4111 -19.2602
lfingers 7.12502
lthumb 7.87356 10.5732
rfemur -3.42394 2.05801 24.3994
rtibia 38.7988
rfoot 18.1644 -3.54446
rtoes -14.0962
lfemur -8.26475 4.6529 -19.2981
ltibia 51.8062
lfoot 13.6545 -3.56
ltoes -13.2595
43
root 5.78596 20.9565 -2.11466 523.51 94.3743 -1993.38
lowerback 11.7073 -1.71413 2.66856
upperback -2.21949 -1.94529 -0.624465
thorax -9.0788 -1.10038 -1.79569
lowerneck -5.92372 2.69571 -5.43452
upperneck 8.99794 4.22574 -0.106184
head 3.88347 1.92429 1.14175
rclavicle -5.59517e-014 -7.95139e-016
rhumerus -15.969 50.0463 -96.3631
rradius 104.7
rwrist -0.182011
rhand -30.6845 28.8916
rfingers 7.12502
rthumb -3.97851 -1.05101
lclavicle -5.59517e-014 -7.95139e-016
lhumerus -13.4655 -35.536 85.8104
lradius 110.411
lwrist 17.4693
lhand -18.4974 -19.1817
lfingers 7.12502
lthumb 7.7903 10.6547
rfemur -3.84336 1.76489 24.4103
rtibia 38.3313
rfoot 17.2285 -3.38201
rtoes -14.5358
lfemur -8.64647 4.95888 -19.2904
ltibia 51.248
lfoot 12.7913 -3.55891
ltoes -13.6584
44
root 6.01036 20.9703 -2.12372 523.72 94.2441 -1993.21
lowerback 11.938 -1.73846 2.63916
upperback -2.06612 -1.97553 -0.617928
thorax -9.04549 -1.11061 -1.76283
lowerneck -6.13293 2.67305 -5.24337
upperneck 9.12536 4.20445 -0.222024
head 3.97672 1.91069 1.07602
rclavicle -1.05666e-014 -5.36719e-015
rhumerus -16.533 49.8774 -96.6994
rradius 104.806
rwrist 0.298297
rhand -30.8537 28.6514
rfingers 7.12502
rthumb -4.14182 -1.2881
lclavicle -1.05666e-014 -5.36719e-015
lhumerus -14.0545 -35.9738 86.1693
lradius 110.573
lwrist 17.1613
lhand -18.49 -18.9784
lfingers 7.12502
lthumb 7.79744 10.8578
rfemur -4.2992 1.57457 24.4602
rtibia 37.8972
rfoot 16.2253 -3.32195
rtoes -15.1063
lfemur -9.0483 5.16554 -19.2776
ltibia 50.6676
lfoot 11.9638 -3.50411
ltoes -13.7769
45
root 6.2325 20.9737 -2.133 524.407 94.1029 -1992.51
lowerback 12.2215 -1.7739 2.54494
upperback -1.86739 -2.02764 -0.597706
thorax -8.99114 -1.12666 -1.67363
lowerneck -6.39129 2.64682 -5.109
upperneck 9.24364 4.18401 -0.319933
head 4.07556 1.89609 1.02709
rclavicle 1.27906e-014 -2.78299e-015
rhumerus -17.0489 49.7084 -97.0196
rradius 104.812
rwrist 0.839894
rhand -31.0488 28.4596
rfingers 7.12502
rthumb -4.33023 -1.47617
lclavicle 1.27906e-014 -2.78299e-015
lhumerus -14.705 -36.3157 86.5807
lradius 110.724
lwrist 16.7292
lhand -18.3547 -18.8039
lfingers 7.12502
lthumb 7.92805 11.0274
rfemur -4.75399 1.43349 24.4659
rtibia 37.5079
rfoot 15.2922 -3.47472
rtoes -15.3161
lfemur -9.40802 5.30567 -19.3093
ltibia 50.0573
lfoot 11.3998 -3.3471
ltoes -13.8348
46
root 6.45372 20.9657 -2.14254 525.537 93.9807 -1991.37
lowerback 12.5025 -1.79837 2.43175
upperback -1.66885 -2.06882 -0.58671
thorax -8.93422 -1.13674 -1.58568
lowerneck -6.64552 2.62546 -4.9611
upperneck 9.36036 4.17017 -0.439004
head 4.17399 1.88425 0.968589
rclavicle -5.31501e-014 -1.37161e-014
rhumerus -17.6014 49.4964 -97.4229
rradius 104.727
rwrist 1.3703
rhand -31.2434 28.2746
rfingers 7.12502
rthumb -4.51813 -1.65723
lclavicle -5.31501e-014 -1.37161e-014
lhumerus -15.4926 -36.6198 87.1331
lradius 110.804
lwrist 16.1723
lhand -18.1647 -18.6126
lfingers 7.12502
lthumb 8.1114 11.2117
rfemur -5.26807 1.36206 24.4393
rtibia 37.1765
rfoot 14.376 -3.70487
rtoes -15.7246
lfemur -9.76366 5.36999 -19.374
ltibia 49.3953
lfoot 10.9071 -3.08778
ltoes -13.8015
